<svg width="258" height="258" viewBox="0 0 258 258" fill="none" xmlns="http://www.w3.org/2000/svg">
<path d="M32.7873 128.925V96.1378V62.2753V26.8003C32.7873 20.8878 37.6248 16.0503 43.5373 16.0503H97.2873L90.2998 37.5503L53.2123 113.338L32.7873 128.925Z" fill="#58BF97"/>
<path d="M91.375 37.5503H69.875C69.875 46.6878 62.8875 53.6753 53.75 53.6753V57.4378V90.7628V112.8H70.4125L91.375 37.5503Z" fill="#38A378"/>
<path d="M63.875 112.725L74.625 81.0121L85.375 48.7621L96.125 14.8996C97.7375 9.52463 104.188 6.29963 109.562 7.91213L201.475 38.5496C206.85 40.1621 210.075 46.6121 208.463 51.9871L188.037 113.262" fill="#58BF97"/>
<path d="M204.25 112.338H118.25H107.5H53.75C41.925 112.338 32.25 122.013 32.25 133.838V230.588C32.25 242.413 41.925 252.088 53.75 252.088H139.75H150.5H204.25C216.075 252.088 225.75 242.413 225.75 230.588V133.838C225.75 122.013 216.075 112.338 204.25 112.338Z" fill="#007CC7"/>
<path d="M220.375 219.838H176.838C165.013 219.838 155.875 210.163 155.875 198.338C155.875 186.513 165.013 176.838 176.838 176.838H220.375" fill="#EEFBFB"/>
<path d="M92.4497 114.175C91.9122 114.175 91.3747 114.175 90.8372 113.637C88.1497 112.562 86.5372 109.875 87.6122 106.65L109.65 39.9999C110.725 37.3124 113.412 35.6999 116.637 36.7749C122.012 38.3874 128.462 35.6999 130.075 29.7874C130.612 28.1749 131.687 27.0999 132.762 26.5624C133.837 26.0249 135.45 26.0249 137.062 26.0249L177.912 39.4624C180.6 40.5374 182.212 43.2249 181.137 46.4499C179.525 51.8249 182.212 58.2749 188.125 59.8874C189.737 60.4249 190.812 61.4999 191.35 62.5749C191.887 63.6499 191.887 65.2624 191.887 66.8749L177.912 109.875C176.837 112.562 174.15 114.175 170.925 113.1C168.237 112.025 166.625 109.337 167.7 106.112L180.6 67.9499C174.15 63.6499 170.387 56.1249 170.925 48.5999L139.212 37.8499C134.912 44.2999 127.387 48.0624 119.862 47.5249L99.4372 109.337C96.7497 112.562 94.5997 114.175 92.4497 114.175Z" fill="#145374"/>
<path d="M171.462 112.8L185.437 69.8C176.837 67.1125 172.537 57.975 175.225 49.375L134.375 35.9375C131.687 44.5375 122.55 48.8375 113.95 46.15L112.875 49.9125L102.125 81.625L91.9124 112.8" fill="#707070"/>
<path d="M156.545 70.4851C158.414 64.8499 155.36 58.7666 149.725 56.8976C144.09 55.0287 138.007 58.0819 136.138 63.7172C134.269 69.3524 137.322 75.4357 142.957 77.3046C148.592 79.1735 154.676 76.1203 156.545 70.4851Z" fill="#060707"/>
<path d="M177.375 203.175C180.344 203.175 182.75 200.769 182.75 197.8C182.75 194.832 180.344 192.425 177.375 192.425C174.406 192.425 172 194.832 172 197.8C172 200.769 174.406 203.175 177.375 203.175Z" fill="#060707"/>
</svg>
